<?xml version="1.0" encoding="UTF-8"?>
<svg id="Layer_1" xmlns="http://www.w3.org/2000/svg" version="1.1" xmlns:xlink="http://www.w3.org/1999/xlink" viewBox="0 0 1024 584.14">
  <!-- Generator: Adobe Illustrator 30.1.0, SVG Export Plug-In . SVG Version: 2.1.1 Build 136)  -->
  <defs>
    <style>
      .st0 {
        fill: url(#linear-gradient2);
      }

      .st1 {
        fill: #fff;
      }

      .st2 {
        fill: url(#linear-gradient1);
      }

      .st3 {
        fill: url(#linear-gradient4);
      }

      .st4 {
        fill: url(#linear-gradient5);
      }

      .st5 {
        fill: url(#linear-gradient3);
      }

      .st6 {
        fill: url(#linear-gradient6);
      }

      .st7 {
        fill: url(#linear-gradient);
      }
    </style>
    <linearGradient id="linear-gradient" x1="219.75" y1="419.33" x2="1048.67" y2="-133.8" gradientTransform="translate(0 586.14) scale(1 -1)" gradientUnits="userSpaceOnUse">
      <stop offset="0" stop-color="#fff"/>
      <stop offset="1" stop-color="#dbdbdb"/>
    </linearGradient>
    <linearGradient id="linear-gradient1" x1="279.82" y1="509.33" x2="1108.73" y2="-43.8" gradientTransform="translate(0 586.14) scale(1 -1)" gradientUnits="userSpaceOnUse">
      <stop offset="0" stop-color="#fff"/>
      <stop offset="1" stop-color="#dbdbdb"/>
    </linearGradient>
    <linearGradient id="linear-gradient2" x1="340.65" y1="600.5" x2="1169.57" y2="47.37" gradientTransform="translate(0 586.14) scale(1 -1)" gradientUnits="userSpaceOnUse">
      <stop offset="0" stop-color="#fff"/>
      <stop offset="1" stop-color="#dbdbdb"/>
    </linearGradient>
    <linearGradient id="linear-gradient3" x1="305.73" y1="548.17" x2="1134.65" y2="-4.96" gradientTransform="translate(0 586.14) scale(1 -1)" gradientUnits="userSpaceOnUse">
      <stop offset="0" stop-color="#fff"/>
      <stop offset="1" stop-color="#dbdbdb"/>
    </linearGradient>
    <linearGradient id="linear-gradient4" x1="336.18" y1="593.81" x2="1165.1" y2="40.68" gradientTransform="translate(0 586.14) scale(1 -1)" gradientUnits="userSpaceOnUse">
      <stop offset="0" stop-color="#fff"/>
      <stop offset="1" stop-color="#dbdbdb"/>
    </linearGradient>
    <linearGradient id="linear-gradient5" x1="352.92" y1="618.88" x2="1181.83" y2="65.75" gradientTransform="translate(0 586.14) scale(1 -1)" gradientUnits="userSpaceOnUse">
      <stop offset="0" stop-color="#fff"/>
      <stop offset="1" stop-color="#dbdbdb"/>
    </linearGradient>
    <linearGradient id="linear-gradient6" x1="783.5" y1="389.61" x2="920.35" y2="217.25" gradientTransform="translate(0 586.14) scale(1 -1)" gradientUnits="userSpaceOnUse">
      <stop offset="0" stop-color="#fff"/>
      <stop offset="1" stop-color="#dbdbdb"/>
    </linearGradient>
  </defs>
  <g>
    <path class="st7" d="M385.57,146.75h-82.77c-5.41,0-9.94-1.9-13.84-5.81-3.9-3.9-5.8-8.42-5.8-13.84s1.9-9.94,5.8-13.84c3.91-3.9,8.43-5.8,13.84-5.8h121.44c7.6,0,14.13-2.67,19.39-7.94,5.27-5.27,7.94-11.79,7.94-19.39s-2.66-14.13-7.89-19.51c-5.28-5.4-11.82-8.14-19.44-8.14h-121.44c-20.54,0-38.3,7.35-52.79,21.84-14.49,14.49-21.84,32.25-21.84,52.79s7.35,38.3,21.84,52.79c14.49,14.49,32.25,21.84,52.79,21.84h82.77c5.43,0,9.97,1.86,13.88,5.68,3.88,3.79,5.76,8.26,5.76,13.64s-1.9,9.94-5.8,13.84-8.43,5.8-13.84,5.8H37.13c-7.6,0-14.18,2.72-19.55,8.1-5.37,5.37-8.1,11.84-8.1,19.23s2.72,14.18,8.1,19.55c5.37,5.37,11.95,8.1,19.55,8.1h348.44c20.53,0,38.29-7.35,52.79-21.84,14.49-14.49,21.84-32.25,21.84-52.79s-7.35-37.97-21.84-52.47c-14.5-14.49-32.26-21.84-52.79-21.84h0Z"/>
    <path class="st2" d="M526.13,197.04h-13.12v-31.77c0-4.11-1.52-7.71-4.51-10.7s-6.6-4.51-10.7-4.51-7.89,1.52-10.88,4.51c-2.99,2.99-4.51,6.59-4.51,10.7v113.7c0,4.23,1.52,7.9,4.51,10.89s6.65,4.51,10.88,4.51,7.71-1.52,10.7-4.51c2.99-2.99,4.51-6.66,4.51-10.88v-51.33h13.12c4.69,0,8.57,1.6,11.87,4.91,3.3,3.3,4.91,7.19,4.91,11.88v34.55c0,4.23,1.52,7.9,4.51,10.89s6.65,4.51,10.88,4.51,7.89-1.52,10.89-4.51c2.99-2.99,4.51-6.66,4.51-10.88v-34.55c0-12.97-4.68-24.22-13.92-33.46s-20.56-13.92-33.64-13.92v-.03Z"/>
    <path class="st0" d="M608.83,148.96c-4.37,0-8.1,1.55-11.09,4.62-2.98,3.05-4.49,6.73-4.49,10.96s1.51,7.91,4.49,10.95c2.99,3.07,6.72,4.62,11.09,4.62s7.91-1.55,10.91-4.62c2.98-3.05,4.48-6.74,4.48-10.95s-1.51-7.9-4.49-10.95c-2.99-3.07-6.66-4.62-10.91-4.62h.01Z"/>
    <path class="st5" d="M608.83,185.96c-4.23,0-7.9,1.52-10.89,4.51-2.99,2.99-4.51,6.65-4.51,10.88v77.61c0,4.23,1.52,7.9,4.51,10.89,2.99,2.99,6.65,4.51,10.89,4.51s7.71-1.52,10.7-4.51,4.51-6.66,4.51-10.88v-77.61c0-4.23-1.52-7.89-4.51-10.88s-6.59-4.51-10.7-4.51h0Z"/>
    <path class="st3" d="M703.18,150.06h-13.16c-12.97,0-24.16,4.62-33.28,13.74-9.12,9.12-13.74,20.31-13.74,33.28v81.89c0,4.23,1.52,7.9,4.51,10.89,2.99,2.99,6.65,4.51,10.89,4.51s7.71-1.52,10.7-4.51,4.51-6.66,4.51-10.88v-38.9h14.4c4.23,0,7.9-1.52,10.88-4.51,2.99-2.99,4.51-6.65,4.51-10.88s-1.52-7.88-4.53-10.82c-2.99-2.92-6.64-4.39-10.86-4.39h-14.4v-12.39c0-4.57,1.58-8.36,4.81-11.6,3.24-3.24,7.03-4.81,11.6-4.81h13.16c4.11,0,7.71-1.52,10.7-4.51,2.99-2.99,4.51-6.65,4.51-10.89s-1.52-7.71-4.51-10.7c-2.99-2.99-6.59-4.51-10.7-4.51h0Z"/>
    <path class="st4" d="M765.45,263.76c-2.48,0-4.57-.89-6.39-2.71-1.82-1.82-2.71-3.91-2.71-6.39v-27.02h5.25c4.24,0,7.88-1.52,10.82-4.53,2.92-2.99,4.39-6.58,4.39-10.68s-1.48-7.87-4.4-10.86c-2.94-3.01-6.58-4.53-10.82-4.53h-5.25v-12.21c0-4.23-1.52-7.89-4.51-10.89-2.99-2.99-6.59-4.51-10.7-4.51s-7.9,1.52-10.88,4.51c-2.99,2.99-4.51,6.65-4.51,10.88v69.83c0,10.9,3.92,20.35,11.64,28.07,7.72,7.72,17.16,11.64,28.07,11.64,4.23,0,7.89-1.52,10.89-4.51,2.99-2.99,4.51-6.66,4.51-10.88s-1.52-7.71-4.51-10.7c-2.99-2.99-6.66-4.51-10.88-4.51h0Z"/>
    <path class="st6" d="M987.11,79.68l-1.43-.61c-25.89-8.68-47.09-1.8-61.32,19.9l-118.21,222.36-35.68,67.12-19.28-37.47-.43-.73c-14.23-21.69-35.44-28.57-61.32-19.9l-1.43.61c-23.79,12.67-31.35,32.08-21.86,56.13l62.46,120.02,1.77,3.24v.81l1.8,2.19c1.35,1.64,2.72,3.1,4.08,4.35l4.35,3.98,5.18,3.52c1.18.72,2.46,1.32,3.83,1.81.45.29.93.54,1.44.75l4.97,1.69,3.34,1.17h2.11l1.39.43h2.11c1.78.33,3.57.5,5.34.5,2.05,0,4.02-.17,5.86-.5l2.53-.07,1.39-.43h3.77l1.12-1.05,4.9-1.48.3-.29c.48-.21.94-.45,1.37-.72,1.37-.49,2.65-1.1,3.82-1.81l3.34-2.21,6.19-5.29c1.36-1.24,2.73-2.7,4.08-4.34l1.81-2.2v-.81l1.82-3.33,195.96-370.42.36-.79c9.48-24.05,1.92-43.46-21.86-56.13h.03Z"/>
  </g>
  <path class="st1" d="M987.11,79.68l-1.43-.61c-25.89-8.68-47.09-1.8-61.32,19.9l-118.21,222.36-33.24,62.53,49.91-92.97-49.91,92.97-2.44,4.58v-.02l-52.63,98.01,10.77,20.69,1.77,3.24v.81l1.8,2.19c1.35,1.64,2.72,3.1,4.08,4.35l4.35,3.98,5.18,3.52c1.18.72,2.46,1.32,3.83,1.81.45.29.93.54,1.44.75l4.97,1.69,3.34,1.17h2.11l1.39.43h2.11c1.78.33,3.57.5,5.34.5,2.05,0,4.02-.17,5.86-.5l2.53-.07,1.39-.43h3.77l1.12-1.05,4.9-1.48.3-.29c.48-.21.94-.45,1.37-.72,1.37-.49,2.65-1.1,3.82-1.81l3.34-2.21,6.19-5.29c1.36-1.24,2.73-2.7,4.08-4.34l1.81-2.2v-.81l1.82-3.33,195.96-370.42.36-.79c9.48-24.05,1.92-43.46-21.86-56.13h.03Z"/>
</svg>