<?xml version="1.0" encoding="UTF-8"?>
<svg id="Layer_1" xmlns="http://www.w3.org/2000/svg" version="1.1" xmlns:xlink="http://www.w3.org/1999/xlink" viewBox="0 0 550 160">
  <!-- Generator: Adobe Illustrator 29.0.0, SVG Export Plug-In . SVG Version: 2.1.0 Build 186)  -->
  <defs>
    <style>
      .st0 {
        fill: #fa58b6;
      }

      .st1 {
        fill: url(#linear-gradient1);
      }

      .st2 {
        fill: #fa58b6;
      }

      .st3 {
        fill: url(#linear-gradient);
      }
    </style>
    <linearGradient id="linear-gradient" x1="102.85" y1="85.41" x2="11.23" y2="85.41" gradientUnits="userSpaceOnUse">
      <stop offset="0" stop-color="#fa58b6"/>
      <stop offset="1" stop-color="#ffcad4"/>
    </linearGradient>
    <linearGradient id="linear-gradient1" x1="440.93" y1="19.09" x2="481.04" y2="106.13" xlink:href="#linear-gradient"/>
  </defs>
  <g>
    <path class="st3" d="M160.94,74.04h-34.41c-2.25,0-4.13-.79-5.75-2.41-1.62-1.62-2.41-3.5-2.41-5.75s.79-4.13,2.41-5.75c1.62-1.62,3.51-2.41,5.75-2.41h50.48c3.16,0,5.87-1.11,8.06-3.3,2.19-2.19,3.3-4.9,3.3-8.06s-1.1-5.88-3.28-8.11c-2.19-2.25-4.91-3.38-8.08-3.38h-50.48c-8.54,0-15.92,3.05-21.94,9.08s-9.08,13.41-9.08,21.94,3.05,15.92,9.08,21.94c6.02,6.02,13.4,9.08,21.94,9.08h34.41c2.26,0,4.14.77,5.77,2.36,1.61,1.58,2.4,3.43,2.4,5.67s-.79,4.13-2.41,5.75c-1.62,1.62-3.51,2.41-5.75,2.41H16.1c-3.16,0-5.9,1.13-8.13,3.37-2.23,2.23-3.37,4.92-3.37,7.99s1.13,5.89,3.37,8.13,4.97,3.37,8.13,3.37h144.84c8.53,0,15.92-3.05,21.94-9.08,6.02-6.02,9.08-13.41,9.08-21.94s-3.05-15.78-9.08-21.81c-6.03-6.02-13.41-9.08-21.94-9.08Z"/>
    <path class="st2" d="M231.92,73.71h-8.32v-20.14c0-2.6-.96-4.89-2.86-6.79-1.9-1.9-4.18-2.86-6.78-2.86s-5,.96-6.9,2.86c-1.9,1.9-2.86,4.18-2.86,6.78v72.08c0,2.68.96,5.01,2.86,6.9,1.9,1.9,4.22,2.86,6.9,2.86s4.89-.96,6.79-2.86c1.9-1.9,2.86-4.22,2.86-6.9v-32.54h8.32c2.97,0,5.43,1.02,7.53,3.11,2.09,2.09,3.11,4.56,3.11,7.53v21.9c0,2.68.96,5.01,2.86,6.9,1.9,1.9,4.22,2.86,6.9,2.86s5-.96,6.9-2.86c1.9-1.9,2.86-4.22,2.86-6.9v-21.9c0-8.22-2.97-15.36-8.83-21.21-5.86-5.86-13.03-8.83-21.33-8.83Z"/>
    <path class="st2" d="M281.29,43.23c-2.77,0-5.13.99-7.03,2.93-1.89,1.93-2.84,4.27-2.84,6.95s.96,5.01,2.84,6.94c1.9,1.94,4.26,2.93,7.03,2.93s5.02-.99,6.92-2.93c1.89-1.93,2.84-4.27,2.84-6.94s-.96-5.01-2.84-6.94c-1.9-1.94-4.23-2.93-6.91-2.93Z"/>
    <path class="st2" d="M281.29,66.68c-2.68,0-5.01.96-6.9,2.86-1.9,1.9-2.86,4.22-2.86,6.9v49.2c0,2.68.96,5.01,2.86,6.9,1.9,1.9,4.22,2.86,6.9,2.86s4.89-.96,6.79-2.86c1.9-1.9,2.86-4.22,2.86-6.9v-49.2c0-2.68-.96-5-2.86-6.9-1.9-1.9-4.18-2.86-6.78-2.86Z"/>
    <path class="st2" d="M339.58,43.92h-8.34c-8.22,0-15.32,2.93-21.1,8.71s-8.71,12.88-8.71,21.1v51.92c0,2.68.96,5.01,2.86,6.9,1.9,1.9,4.22,2.86,6.9,2.86s4.89-.96,6.79-2.86c1.9-1.9,2.86-4.22,2.86-6.9v-24.66h9.13c2.68,0,5.01-.96,6.9-2.86,1.9-1.9,2.86-4.22,2.86-6.9s-.97-4.99-2.87-6.86c-1.9-1.85-4.21-2.79-6.89-2.79h-9.13v-7.86c0-2.89,1-5.3,3.05-7.35,2.05-2.05,4.46-3.05,7.35-3.05h8.34c2.61,0,4.89-.96,6.78-2.86,1.9-1.9,2.86-4.22,2.86-6.9s-.96-4.89-2.86-6.79c-1.9-1.9-4.18-2.86-6.78-2.86Z"/>
    <path class="st2" d="M379.06,116c-1.57,0-2.9-.56-4.05-1.72-1.16-1.16-1.72-2.48-1.72-4.05v-17.13h3.33c2.69,0,5-.97,6.86-2.87,1.85-1.89,2.79-4.17,2.79-6.77s-.94-4.99-2.79-6.89c-1.86-1.91-4.17-2.87-6.86-2.87h-3.33v-7.74c0-2.68-.96-5-2.86-6.9-1.9-1.9-4.18-2.86-6.78-2.86s-5.01.96-6.9,2.86c-1.9,1.9-2.86,4.22-2.86,6.9v44.27c0,6.91,2.48,12.9,7.38,17.79,4.9,4.9,10.88,7.38,17.79,7.38,2.68,0,5-.96,6.9-2.86,1.9-1.9,2.86-4.22,2.86-6.9s-.96-4.89-2.86-6.78c-1.9-1.9-4.22-2.86-6.9-2.86Z"/>
    <path class="st1" d="M496.13,15.27l-.35-.16c-6.33-2.32-11.51-.48-14.99,5.32l-37.62,77.34-26.47-56.29-.1-.2c-3.48-5.8-8.66-7.63-14.99-5.32l-.35.16c-5.82,3.38-7.66,8.57-5.35,15l37.03,78.35.43.87v.22l.44.59c.33.44.67.83,1,1.16l1.06,1.06,1.27.94c.29.19.6.35.94.48.11.08.23.14.35.2l1.21.45.82.31h.52l.34.11h.52c.43.09.87.13,1.3.13.5,0,.98-.04,1.43-.13l.62-.02.34-.11h.92l.27-.28,1.2-.4.07-.08c.12-.06.23-.12.34-.19.33-.13.65-.29.93-.48l.82-.59,1.51-1.41c.33-.33.67-.72,1-1.16l.44-.59v-.22l.44-.89,47.91-98.97.09-.21c2.32-6.43.47-11.61-5.34-15Z"/>
    <path class="st2" d="M496.13,15.27l-.35-.16c-6.33-2.32-11.51-.48-14.99,5.32l-28.9,59.41h0s0,0,0,0l-8.72,17.93-.11-.24-9.99,20c-1.88,3.75-1.92,8.16-.13,11.95h0s.43.87.43.87v.22l.44.59c.33.44.67.83,1,1.16l1.06,1.06,1.27.94c.29.19.6.35.94.48.11.08.23.14.35.2l1.21.45.82.31h.52l.34.11h.52c.43.09.87.13,1.3.13.5,0,.98-.04,1.43-.13l.62-.02.34-.11h.92l.27-.28,1.2-.4.07-.08c.12-.06.23-.12.34-.19.33-.13.65-.29.93-.48l.82-.59,1.51-1.41c.33-.33.67-.72,1-1.16l.44-.59v-.22l.44-.89,47.91-98.97.09-.21c2.32-6.43.47-11.61-5.34-15Z"/>
  </g>
  <g>
    <path class="st0" d="M482.7,122.72c.22,0,.42.08.58.25.16.16.25.36.25.58v2.26h1.7c.83,0,1.54.3,2.14.89.59.59.89,1.3.89,2.14s-.3,1.54-.89,2.14c-.59.59-1.3.89-2.14.89h-2.53c-.23,0-.43-.08-.59-.25-.16-.16-.25-.36-.25-.59v-7.46c0-.22.08-.42.25-.58s.36-.25.59-.25ZM486.58,128.83c0-.38-.13-.7-.4-.96-.26-.26-.58-.4-.95-.4h-1.7v2.71h1.7c.37,0,.68-.13.95-.4.26-.26.4-.58.4-.96Z"/>
    <path class="st0" d="M495.2,125.8c.23,0,.43.08.59.25s.24.36.24.59v4.75c0,.67-.24,1.25-.71,1.72s-1.05.71-1.72.71h-1.62c-.22,0-.42-.08-.58-.25-.16-.16-.25-.36-.25-.59s.08-.42.25-.58.36-.25.58-.25h1.62c.22,0,.4-.08.55-.23.15-.15.22-.33.22-.54v-.48c-.48.27-1,.41-1.57.41-.9,0-1.66-.32-2.3-.95-.64-.64-.95-1.4-.95-2.3v-1.43c0-.23.08-.43.25-.59.16-.16.36-.25.59-.25s.42.08.58.25.25.36.25.59v1.43c0,.44.15.81.46,1.12s.68.46,1.12.46.8-.15,1.11-.46c.31-.31.46-.68.46-1.12v-1.43c0-.23.08-.43.25-.59s.36-.25.59-.25Z"/>
    <path class="st0" d="M510.17,123.15c.41.16.61.43.61.8v7.06c0,.23-.08.43-.25.59-.16.16-.36.25-.59.25s-.43-.08-.59-.25c-.16-.16-.25-.36-.25-.59v-4.09l-2.17,3.55s0,.01-.01.01c0,.02-.02.03-.02.05l-.02.02s-.02.03-.04.04c0,.02-.02.03-.02.04,0,0-.02.02-.02.02-.02,0-.03.02-.05.04,0,0-.02.01-.02.01-.02.02-.03.03-.05.04,0,0,0,.01-.01.01-.02,0-.03.02-.05.02-.02,0-.03.02-.04.02,0,0-.02,0-.04.01-.02,0-.03.01-.04.01,0,0-.02.01-.04.01-.02,0-.03.01-.05.01,0,0-.01,0-.01.01h-.06s-.02.01-.02.01h-.19s-.02,0-.02-.01c-.02,0-.04,0-.06-.01h-.02s-.03,0-.05-.01c0,0-.02,0-.02-.01-.02,0-.03,0-.04-.01-.02,0-.03-.01-.05-.01,0,0-.02-.02-.02-.02-.02,0-.03-.02-.05-.02h-.01s0-.01-.01-.01c-.02,0-.03-.02-.05-.04,0,0-.02,0-.02-.01,0-.02-.02-.03-.04-.04l-.02-.02s-.03-.02-.04-.04c0,0-.02-.02-.02-.04,0,0-.02-.02-.02-.02,0-.02-.02-.03-.04-.05h-.01s-2.17-3.56-2.17-3.56v4.09c0,.23-.08.43-.25.59-.16.16-.36.25-.58.25s-.43-.08-.59-.25c-.16-.16-.25-.36-.25-.59v-7.06c0-.38.2-.64.61-.8.39-.09.7.04.94.37l3.01,4.91,3.01-4.91c.22-.34.54-.46.94-.37Z"/>
    <path class="st0" d="M520.2,123.11c.23,0,.43.08.59.25s.25.36.25.59v3.73c0,.76-.19,1.46-.56,2.09s-.88,1.14-1.51,1.51c-.63.38-1.33.56-2.1.56s-1.46-.19-2.09-.56c-.63-.38-1.14-.88-1.51-1.51-.38-.63-.56-1.33-.56-2.09v-3.73c0-.23.08-.43.25-.59s.36-.25.59-.25.42.08.58.25c.16.16.25.36.25.59v3.73c0,.69.24,1.28.73,1.76.49.49,1.08.73,1.76.73s1.29-.24,1.78-.73.73-1.08.73-1.76v-3.73c0-.23.08-.43.24-.59s.36-.25.59-.25Z"/>
    <path class="st0" d="M531.41,123.15c.41.16.61.43.61.8v7.06c0,.23-.08.43-.25.59-.16.16-.36.25-.59.25s-.43-.08-.59-.25c-.16-.16-.25-.36-.25-.59v-4.09l-2.17,3.55s0,.01-.01.01c0,.02-.02.03-.02.05l-.02.02s-.02.03-.04.04c0,.02-.02.03-.02.04,0,0-.02.02-.02.02-.02,0-.03.02-.05.04,0,0-.02.01-.02.01-.02.02-.03.03-.05.04,0,0,0,.01-.01.01-.02,0-.03.02-.05.02-.02,0-.03.02-.04.02,0,0-.02,0-.04.01-.02,0-.03.01-.04.01,0,0-.02.01-.04.01-.02,0-.03.01-.05.01,0,0-.01,0-.01.01h-.06s-.02.01-.02.01h-.19s-.02,0-.02-.01c-.02,0-.04,0-.06-.01h-.02s-.03,0-.05-.01c0,0-.02,0-.02-.01-.02,0-.03,0-.04-.01-.02,0-.03-.01-.05-.01,0,0-.02-.02-.02-.02-.02,0-.03-.02-.05-.02h-.01s0-.01-.01-.01c-.02,0-.03-.02-.05-.04,0,0-.02,0-.02-.01,0-.02-.02-.03-.04-.04l-.02-.02s-.03-.02-.04-.04c0,0-.02-.02-.02-.04,0,0-.02-.02-.02-.02,0-.02-.02-.03-.04-.05h-.01s-2.17-3.56-2.17-3.56v4.09c0,.23-.08.43-.25.59-.16.16-.36.25-.58.25s-.43-.08-.59-.25c-.16-.16-.25-.36-.25-.59v-7.06c0-.38.2-.64.61-.8.39-.09.7.04.94.37l3.01,4.91,3.01-4.91c.22-.34.54-.46.94-.37Z"/>
    <path class="st0" d="M541.44,123.11c.23,0,.43.08.59.25s.25.36.25.59v3.73c0,.76-.19,1.46-.56,2.09s-.88,1.14-1.51,1.51c-.63.38-1.33.56-2.1.56s-1.46-.19-2.09-.56c-.63-.38-1.14-.88-1.51-1.51-.38-.63-.56-1.33-.56-2.09v-3.73c0-.23.08-.43.25-.59s.36-.25.59-.25.42.08.58.25c.16.16.25.36.25.59v3.73c0,.69.24,1.28.73,1.76.49.49,1.08.73,1.76.73s1.29-.24,1.78-.73.73-1.08.73-1.76v-3.73c0-.23.08-.43.24-.59s.36-.25.59-.25Z"/>
  </g>
  <path class="st0" d="M313.97,98.02c1.93,0,1.93-3,0-3s-1.93,3,0,3h0Z"/>
</svg>